<?xml version="1.0" encoding="utf-8"?>
<!-- Generator: Adobe Illustrator 26.1.0, SVG Export Plug-In . SVG Version: 6.00 Build 0)  -->
<svg version="1.1" id="Calque_1" xmlns="http://www.w3.org/2000/svg" xmlns:xlink="http://www.w3.org/1999/xlink" x="0px" y="0px"
	 viewBox="0 0 841.89 595.28" style="enable-background:new 0 0 841.89 595.28;" xml:space="preserve">
<style type="text/css">
	.st0{fill:#394FBC;}
	.st1{fill:#FFFFFF;}
	.st2{fill:#00003C;}
</style>
<path class="st0" d="M747.32,264.86h-45.96V569H179.82V264.86h-45.96c-5.41,0.02-9.83-3.79-9.86-8.5c-0.01-2.41,1.14-4.71,3.18-6.34
	l98.98-79.97V69.2c0-5.24,4.87-9.48,10.87-9.48l0,0h76.31c5.98,0,10.84,4.23,10.84,9.44c0,0.01,0,0.02,0,0.03V91L433.76,2.27
	c3.77-3.03,9.58-3.03,13.36,0l306.76,247.74c3.97,3.23,4.18,8.65,0.47,12.12C752.51,263.84,749.98,264.81,747.32,264.86z"/>
<rect x="352" y="310" class="st0" width="215" height="235.64"/>
<circle class="st1" cx="376.25" cy="427.82" r="16.25"/>
<rect x="360" y="423" class="st2" width="22" height="9.64"/>
</svg>
