<?xml version="1.0" encoding="utf-8"?>
<!-- Generator: Adobe Illustrator 26.1.0, SVG Export Plug-In . SVG Version: 6.00 Build 0)  -->
<svg version="1.1" id="Calque_1" xmlns="http://www.w3.org/2000/svg" xmlns:xlink="http://www.w3.org/1999/xlink" x="0px" y="0px"
	 viewBox="0 0 841.89 595.28" style="enable-background:new 0 0 841.89 595.28;" xml:space="preserve">
<style type="text/css">
	.st0{fill:#DFF943;stroke:#0029D0;stroke-miterlimit:10;}
	.st1{fill:#0029D0;stroke:#DFF943;stroke-miterlimit:10;}
</style>
<path class="st0" d="M688.68,274.79h-40.2V580H192.32V274.79h-40.2c-4.72,0.03-8.61-3.79-8.61-8.55c0-2.41,0.99-4.72,2.77-6.35
	l86.57-80.25V78.44c0-5.27,4.24-9.51,9.51-9.51l0,0h66.74c5.24,0,9.48,4.24,9.48,9.48v0.03v21.88l95.84-89.04
	c3.31-3.04,8.37-3.04,11.68,0l268.29,248.61c3.46,3.25,3.67,8.7,0.42,12.16C693.22,273.76,690.99,274.76,688.68,274.79z"/>
<rect x="366.28" y="324.95" class="st1" width="117.36" height="228.69"/>
</svg>
